<svg viewBox="0 0 400 556" xmlns="http://www.w3.org/2000/svg"><rect width="400" height="556" fill="#a8712e"/><polygon points="26.0,-15.0 26.0,15.0 0.0,30.0 -26.0,15.0 -26.0,-15.0 -0.0,-30.0" fill="none" stroke="#24301f" stroke-width="1.6" opacity="0.55"/><polygon points="77.9,-15.0 77.9,15.0 52.0,30.0 26.0,15.0 26.0,-15.0 52.0,-30.0" fill="none" stroke="#24301f" stroke-width="1.6" opacity="0.55"/><polygon points="129.9,-15.0 129.9,15.0 103.9,30.0 77.9,15.0 77.9,-15.0 103.9,-30.0" fill="none" stroke="#24301f" stroke-width="1.6" opacity="0.55"/><polygon points="181.9,-15.0 181.9,15.0 155.9,30.0 129.9,15.0 129.9,-15.0 155.9,-30.0" fill="none" stroke="#24301f" stroke-width="1.6" opacity="0.55"/><polygon points="233.8,-15.0 233.8,15.0 207.8,30.0 181.9,15.0 181.9,-15.0 207.8,-30.0" fill="none" stroke="#24301f" stroke-width="1.6" opacity="0.55"/><polygon points="285.8,-15.0 285.8,15.0 259.8,30.0 233.8,15.0 233.8,-15.0 259.8,-30.0" fill="none" stroke="#24301f" stroke-width="1.6" opacity="0.55"/><polygon points="337.7,-15.0 337.7,15.0 311.8,30.0 285.8,15.0 285.8,-15.0 311.8,-30.0" fill="none" stroke="#24301f" stroke-width="1.6" opacity="0.55"/><polygon points="389.7,-15.0 389.7,15.0 363.7,30.0 337.7,15.0 337.7,-15.0 363.7,-30.0" fill="none" stroke="#24301f" stroke-width="1.6" opacity="0.55"/><polygon points="441.7,-15.0 441.7,15.0 415.7,30.0 389.7,15.0 389.7,-15.0 415.7,-30.0" fill="none" stroke="#24301f" stroke-width="1.6" opacity="0.55"/><polygon points="0.0,30.0 0.0,60.0 -26.0,75.0 -52.0,60.0 -52.0,30.0 -26.0,15.0" fill="none" stroke="#24301f" stroke-width="1.6" opacity="0.55"/><polygon points="52.0,30.0 52.0,60.0 26.0,75.0 -0.0,60.0 0.0,30.0 26.0,15.0" fill="none" stroke="#24301f" stroke-width="1.6" opacity="0.55"/><polygon points="103.9,30.0 103.9,60.0 77.9,75.0 52.0,60.0 52.0,30.0 77.9,15.0" fill="none" stroke="#24301f" stroke-width="1.6" opacity="0.55"/><polygon points="155.9,30.0 155.9,60.0 129.9,75.0 103.9,60.0 103.9,30.0 129.9,15.0" fill="none" stroke="#24301f" stroke-width="1.6" opacity="0.55"/><polygon points="207.8,30.0 207.8,60.0 181.9,75.0 155.9,60.0 155.9,30.0 181.9,15.0" fill="none" stroke="#24301f" stroke-width="1.6" opacity="0.55"/><polygon points="259.8,30.0 259.8,60.0 233.8,75.0 207.8,60.0 207.8,30.0 233.8,15.0" fill="none" stroke="#24301f" stroke-width="1.6" opacity="0.55"/><polygon points="311.8,30.0 311.8,60.0 285.8,75.0 259.8,60.0 259.8,30.0 285.8,15.0" fill="none" stroke="#24301f" stroke-width="1.6" opacity="0.55"/><polygon points="363.7,30.0 363.7,60.0 337.7,75.0 311.8,60.0 311.8,30.0 337.7,15.0" fill="none" stroke="#24301f" stroke-width="1.6" opacity="0.55"/><polygon points="415.7,30.0 415.7,60.0 389.7,75.0 363.7,60.0 363.7,30.0 389.7,15.0" fill="none" stroke="#24301f" stroke-width="1.6" opacity="0.55"/><polygon points="26.0,75.0 26.0,105.0 0.0,120.0 -26.0,105.0 -26.0,75.0 -0.0,60.0" fill="none" stroke="#24301f" stroke-width="1.6" opacity="0.55"/><polygon points="77.9,75.0 77.9,105.0 52.0,120.0 26.0,105.0 26.0,75.0 52.0,60.0" fill="none" stroke="#24301f" stroke-width="1.6" opacity="0.55"/><polygon points="129.9,75.0 129.9,105.0 103.9,120.0 77.9,105.0 77.9,75.0 103.9,60.0" fill="none" stroke="#24301f" stroke-width="1.6" opacity="0.55"/><polygon points="181.9,75.0 181.9,105.0 155.9,120.0 129.9,105.0 129.9,75.0 155.9,60.0" fill="none" stroke="#24301f" stroke-width="1.6" opacity="0.55"/><polygon points="233.8,75.0 233.8,105.0 207.8,120.0 181.9,105.0 181.9,75.0 207.8,60.0" fill="none" stroke="#24301f" stroke-width="1.6" opacity="0.55"/><polygon points="285.8,75.0 285.8,105.0 259.8,120.0 233.8,105.0 233.8,75.0 259.8,60.0" fill="none" stroke="#24301f" stroke-width="1.6" opacity="0.55"/><polygon points="337.7,75.0 337.7,105.0 311.8,120.0 285.8,105.0 285.8,75.0 311.8,60.0" fill="none" stroke="#24301f" stroke-width="1.6" opacity="0.55"/><polygon points="389.7,75.0 389.7,105.0 363.7,120.0 337.7,105.0 337.7,75.0 363.7,60.0" fill="none" stroke="#24301f" stroke-width="1.6" opacity="0.55"/><polygon points="441.7,75.0 441.7,105.0 415.7,120.0 389.7,105.0 389.7,75.0 415.7,60.0" fill="none" stroke="#24301f" stroke-width="1.6" opacity="0.55"/><polygon points="0.0,120.0 0.0,150.0 -26.0,165.0 -52.0,150.0 -52.0,120.0 -26.0,105.0" fill="none" stroke="#24301f" stroke-width="1.6" opacity="0.55"/><polygon points="52.0,120.0 52.0,150.0 26.0,165.0 -0.0,150.0 0.0,120.0 26.0,105.0" fill="none" stroke="#24301f" stroke-width="1.6" opacity="0.55"/><polygon points="103.9,120.0 103.9,150.0 77.9,165.0 52.0,150.0 52.0,120.0 77.9,105.0" fill="none" stroke="#24301f" stroke-width="1.6" opacity="0.55"/><polygon points="155.9,120.0 155.9,150.0 129.9,165.0 103.9,150.0 103.9,120.0 129.9,105.0" fill="none" stroke="#24301f" stroke-width="1.6" opacity="0.55"/><polygon points="207.8,120.0 207.8,150.0 181.9,165.0 155.9,150.0 155.9,120.0 181.9,105.0" fill="none" stroke="#24301f" stroke-width="1.6" opacity="0.55"/><polygon points="259.8,120.0 259.8,150.0 233.8,165.0 207.8,150.0 207.8,120.0 233.8,105.0" fill="none" stroke="#24301f" stroke-width="1.6" opacity="0.55"/><polygon points="311.8,120.0 311.8,150.0 285.8,165.0 259.8,150.0 259.8,120.0 285.8,105.0" fill="none" stroke="#24301f" stroke-width="1.6" opacity="0.55"/><polygon points="363.7,120.0 363.7,150.0 337.7,165.0 311.8,150.0 311.8,120.0 337.7,105.0" fill="none" stroke="#24301f" stroke-width="1.6" opacity="0.55"/><polygon points="415.7,120.0 415.7,150.0 389.7,165.0 363.7,150.0 363.7,120.0 389.7,105.0" fill="none" stroke="#24301f" stroke-width="1.6" opacity="0.55"/><polygon points="26.0,165.0 26.0,195.0 0.0,210.0 -26.0,195.0 -26.0,165.0 -0.0,150.0" fill="none" stroke="#24301f" stroke-width="1.6" opacity="0.55"/><polygon points="77.9,165.0 77.9,195.0 52.0,210.0 26.0,195.0 26.0,165.0 52.0,150.0" fill="none" stroke="#24301f" stroke-width="1.6" opacity="0.55"/><polygon points="129.9,165.0 129.9,195.0 103.9,210.0 77.9,195.0 77.9,165.0 103.9,150.0" fill="none" stroke="#24301f" stroke-width="1.6" opacity="0.55"/><polygon points="181.9,165.0 181.9,195.0 155.9,210.0 129.9,195.0 129.9,165.0 155.9,150.0" fill="none" stroke="#24301f" stroke-width="1.6" opacity="0.55"/><polygon points="233.8,165.0 233.8,195.0 207.8,210.0 181.9,195.0 181.9,165.0 207.8,150.0" fill="none" stroke="#24301f" stroke-width="1.6" opacity="0.55"/><polygon points="285.8,165.0 285.8,195.0 259.8,210.0 233.8,195.0 233.8,165.0 259.8,150.0" fill="none" stroke="#24301f" stroke-width="1.6" opacity="0.55"/><polygon points="337.7,165.0 337.7,195.0 311.8,210.0 285.8,195.0 285.8,165.0 311.8,150.0" fill="none" stroke="#24301f" stroke-width="1.6" opacity="0.55"/><polygon points="389.7,165.0 389.7,195.0 363.7,210.0 337.7,195.0 337.7,165.0 363.7,150.0" fill="none" stroke="#24301f" stroke-width="1.6" opacity="0.55"/><polygon points="441.7,165.0 441.7,195.0 415.7,210.0 389.7,195.0 389.7,165.0 415.7,150.0" fill="none" stroke="#24301f" stroke-width="1.6" opacity="0.55"/><polygon points="0.0,210.0 0.0,240.0 -26.0,255.0 -52.0,240.0 -52.0,210.0 -26.0,195.0" fill="none" stroke="#24301f" stroke-width="1.6" opacity="0.55"/><polygon points="52.0,210.0 52.0,240.0 26.0,255.0 -0.0,240.0 0.0,210.0 26.0,195.0" fill="none" stroke="#24301f" stroke-width="1.6" opacity="0.55"/><polygon points="103.9,210.0 103.9,240.0 77.9,255.0 52.0,240.0 52.0,210.0 77.9,195.0" fill="none" stroke="#24301f" stroke-width="1.6" opacity="0.55"/><polygon points="155.9,210.0 155.9,240.0 129.9,255.0 103.9,240.0 103.9,210.0 129.9,195.0" fill="none" stroke="#24301f" stroke-width="1.6" opacity="0.55"/><polygon points="207.8,210.0 207.8,240.0 181.9,255.0 155.9,240.0 155.9,210.0 181.9,195.0" fill="none" stroke="#24301f" stroke-width="1.6" opacity="0.55"/><polygon points="259.8,210.0 259.8,240.0 233.8,255.0 207.8,240.0 207.8,210.0 233.8,195.0" fill="none" stroke="#24301f" stroke-width="1.6" opacity="0.55"/><polygon points="311.8,210.0 311.8,240.0 285.8,255.0 259.8,240.0 259.8,210.0 285.8,195.0" fill="none" stroke="#24301f" stroke-width="1.6" opacity="0.55"/><polygon points="363.7,210.0 363.7,240.0 337.7,255.0 311.8,240.0 311.8,210.0 337.7,195.0" fill="none" stroke="#24301f" stroke-width="1.6" opacity="0.55"/><polygon points="415.7,210.0 415.7,240.0 389.7,255.0 363.7,240.0 363.7,210.0 389.7,195.0" fill="none" stroke="#24301f" stroke-width="1.6" opacity="0.55"/><polygon points="26.0,255.0 26.0,285.0 0.0,300.0 -26.0,285.0 -26.0,255.0 -0.0,240.0" fill="none" stroke="#24301f" stroke-width="1.6" opacity="0.55"/><polygon points="77.9,255.0 77.9,285.0 52.0,300.0 26.0,285.0 26.0,255.0 52.0,240.0" fill="none" stroke="#24301f" stroke-width="1.6" opacity="0.55"/><polygon points="129.9,255.0 129.9,285.0 103.9,300.0 77.9,285.0 77.9,255.0 103.9,240.0" fill="none" stroke="#24301f" stroke-width="1.6" opacity="0.55"/><polygon points="181.9,255.0 181.9,285.0 155.9,300.0 129.9,285.0 129.9,255.0 155.9,240.0" fill="none" stroke="#24301f" stroke-width="1.6" opacity="0.55"/><polygon points="233.8,255.0 233.8,285.0 207.8,300.0 181.9,285.0 181.9,255.0 207.8,240.0" fill="none" stroke="#24301f" stroke-width="1.6" opacity="0.55"/><polygon points="285.8,255.0 285.8,285.0 259.8,300.0 233.8,285.0 233.8,255.0 259.8,240.0" fill="none" stroke="#24301f" stroke-width="1.6" opacity="0.55"/><polygon points="337.7,255.0 337.7,285.0 311.8,300.0 285.8,285.0 285.8,255.0 311.8,240.0" fill="none" stroke="#24301f" stroke-width="1.6" opacity="0.55"/><polygon points="389.7,255.0 389.7,285.0 363.7,300.0 337.7,285.0 337.7,255.0 363.7,240.0" fill="none" stroke="#24301f" stroke-width="1.6" opacity="0.55"/><polygon points="441.7,255.0 441.7,285.0 415.7,300.0 389.7,285.0 389.7,255.0 415.7,240.0" fill="none" stroke="#24301f" stroke-width="1.6" opacity="0.55"/><polygon points="0.0,300.0 0.0,330.0 -26.0,345.0 -52.0,330.0 -52.0,300.0 -26.0,285.0" fill="none" stroke="#24301f" stroke-width="1.6" opacity="0.55"/><polygon points="52.0,300.0 52.0,330.0 26.0,345.0 -0.0,330.0 0.0,300.0 26.0,285.0" fill="none" stroke="#24301f" stroke-width="1.6" opacity="0.55"/><polygon points="103.9,300.0 103.9,330.0 77.9,345.0 52.0,330.0 52.0,300.0 77.9,285.0" fill="none" stroke="#24301f" stroke-width="1.6" opacity="0.55"/><polygon points="155.9,300.0 155.9,330.0 129.9,345.0 103.9,330.0 103.9,300.0 129.9,285.0" fill="none" stroke="#24301f" stroke-width="1.6" opacity="0.55"/><polygon points="207.8,300.0 207.8,330.0 181.9,345.0 155.9,330.0 155.9,300.0 181.9,285.0" fill="none" stroke="#24301f" stroke-width="1.6" opacity="0.55"/><polygon points="259.8,300.0 259.8,330.0 233.8,345.0 207.8,330.0 207.8,300.0 233.8,285.0" fill="none" stroke="#24301f" stroke-width="1.6" opacity="0.55"/><polygon points="311.8,300.0 311.8,330.0 285.8,345.0 259.8,330.0 259.8,300.0 285.8,285.0" fill="none" stroke="#24301f" stroke-width="1.6" opacity="0.55"/><polygon points="363.7,300.0 363.7,330.0 337.7,345.0 311.8,330.0 311.8,300.0 337.7,285.0" fill="none" stroke="#24301f" stroke-width="1.6" opacity="0.55"/><polygon points="415.7,300.0 415.7,330.0 389.7,345.0 363.7,330.0 363.7,300.0 389.7,285.0" fill="none" stroke="#24301f" stroke-width="1.6" opacity="0.55"/><polygon points="26.0,345.0 26.0,375.0 0.0,390.0 -26.0,375.0 -26.0,345.0 -0.0,330.0" fill="none" stroke="#24301f" stroke-width="1.6" opacity="0.55"/><polygon points="77.9,345.0 77.9,375.0 52.0,390.0 26.0,375.0 26.0,345.0 52.0,330.0" fill="none" stroke="#24301f" stroke-width="1.6" opacity="0.55"/><polygon points="129.9,345.0 129.9,375.0 103.9,390.0 77.9,375.0 77.9,345.0 103.9,330.0" fill="none" stroke="#24301f" stroke-width="1.6" opacity="0.55"/><polygon points="181.9,345.0 181.9,375.0 155.9,390.0 129.9,375.0 129.9,345.0 155.9,330.0" fill="none" stroke="#24301f" stroke-width="1.6" opacity="0.55"/><polygon points="233.8,345.0 233.8,375.0 207.8,390.0 181.9,375.0 181.9,345.0 207.8,330.0" fill="none" stroke="#24301f" stroke-width="1.6" opacity="0.55"/><polygon points="285.8,345.0 285.8,375.0 259.8,390.0 233.8,375.0 233.8,345.0 259.8,330.0" fill="none" stroke="#24301f" stroke-width="1.6" opacity="0.55"/><polygon points="337.7,345.0 337.7,375.0 311.8,390.0 285.8,375.0 285.8,345.0 311.8,330.0" fill="none" stroke="#24301f" stroke-width="1.6" opacity="0.55"/><polygon points="389.7,345.0 389.7,375.0 363.7,390.0 337.7,375.0 337.7,345.0 363.7,330.0" fill="none" stroke="#24301f" stroke-width="1.6" opacity="0.55"/><polygon points="441.7,345.0 441.7,375.0 415.7,390.0 389.7,375.0 389.7,345.0 415.7,330.0" fill="none" stroke="#24301f" stroke-width="1.6" opacity="0.55"/><polygon points="0.0,390.0 0.0,420.0 -26.0,435.0 -52.0,420.0 -52.0,390.0 -26.0,375.0" fill="none" stroke="#24301f" stroke-width="1.6" opacity="0.55"/><polygon points="52.0,390.0 52.0,420.0 26.0,435.0 -0.0,420.0 0.0,390.0 26.0,375.0" fill="none" stroke="#24301f" stroke-width="1.6" opacity="0.55"/><polygon points="103.9,390.0 103.9,420.0 77.9,435.0 52.0,420.0 52.0,390.0 77.9,375.0" fill="none" stroke="#24301f" stroke-width="1.6" opacity="0.55"/><polygon points="155.9,390.0 155.9,420.0 129.9,435.0 103.9,420.0 103.9,390.0 129.9,375.0" fill="none" stroke="#24301f" stroke-width="1.6" opacity="0.55"/><polygon points="207.8,390.0 207.8,420.0 181.9,435.0 155.9,420.0 155.9,390.0 181.9,375.0" fill="none" stroke="#24301f" stroke-width="1.6" opacity="0.55"/><polygon points="259.8,390.0 259.8,420.0 233.8,435.0 207.8,420.0 207.8,390.0 233.8,375.0" fill="none" stroke="#24301f" stroke-width="1.6" opacity="0.55"/><polygon points="311.8,390.0 311.8,420.0 285.8,435.0 259.8,420.0 259.8,390.0 285.8,375.0" fill="none" stroke="#24301f" stroke-width="1.6" opacity="0.55"/><polygon points="363.7,390.0 363.7,420.0 337.7,435.0 311.8,420.0 311.8,390.0 337.7,375.0" fill="none" stroke="#24301f" stroke-width="1.6" opacity="0.55"/><polygon points="415.7,390.0 415.7,420.0 389.7,435.0 363.7,420.0 363.7,390.0 389.7,375.0" fill="none" stroke="#24301f" stroke-width="1.6" opacity="0.55"/><polygon points="26.0,435.0 26.0,465.0 0.0,480.0 -26.0,465.0 -26.0,435.0 -0.0,420.0" fill="none" stroke="#24301f" stroke-width="1.6" opacity="0.55"/><polygon points="77.9,435.0 77.9,465.0 52.0,480.0 26.0,465.0 26.0,435.0 52.0,420.0" fill="none" stroke="#24301f" stroke-width="1.6" opacity="0.55"/><polygon points="129.9,435.0 129.9,465.0 103.9,480.0 77.9,465.0 77.9,435.0 103.9,420.0" fill="none" stroke="#24301f" stroke-width="1.6" opacity="0.55"/><polygon points="181.9,435.0 181.9,465.0 155.9,480.0 129.9,465.0 129.9,435.0 155.9,420.0" fill="none" stroke="#24301f" stroke-width="1.6" opacity="0.55"/><polygon points="233.8,435.0 233.8,465.0 207.8,480.0 181.9,465.0 181.9,435.0 207.8,420.0" fill="none" stroke="#24301f" stroke-width="1.6" opacity="0.55"/><polygon points="285.8,435.0 285.8,465.0 259.8,480.0 233.8,465.0 233.8,435.0 259.8,420.0" fill="none" stroke="#24301f" stroke-width="1.6" opacity="0.55"/><polygon points="337.7,435.0 337.7,465.0 311.8,480.0 285.8,465.0 285.8,435.0 311.8,420.0" fill="none" stroke="#24301f" stroke-width="1.6" opacity="0.55"/><polygon points="389.7,435.0 389.7,465.0 363.7,480.0 337.7,465.0 337.7,435.0 363.7,420.0" fill="none" stroke="#24301f" stroke-width="1.6" opacity="0.55"/><polygon points="441.7,435.0 441.7,465.0 415.7,480.0 389.7,465.0 389.7,435.0 415.7,420.0" fill="none" stroke="#24301f" stroke-width="1.6" opacity="0.55"/><polygon points="0.0,480.0 0.0,510.0 -26.0,525.0 -52.0,510.0 -52.0,480.0 -26.0,465.0" fill="none" stroke="#24301f" stroke-width="1.6" opacity="0.55"/><polygon points="52.0,480.0 52.0,510.0 26.0,525.0 -0.0,510.0 0.0,480.0 26.0,465.0" fill="none" stroke="#24301f" stroke-width="1.6" opacity="0.55"/><polygon points="103.9,480.0 103.9,510.0 77.9,525.0 52.0,510.0 52.0,480.0 77.9,465.0" fill="none" stroke="#24301f" stroke-width="1.6" opacity="0.55"/><polygon points="155.9,480.0 155.9,510.0 129.9,525.0 103.9,510.0 103.9,480.0 129.9,465.0" fill="none" stroke="#24301f" stroke-width="1.6" opacity="0.55"/><polygon points="207.8,480.0 207.8,510.0 181.9,525.0 155.9,510.0 155.9,480.0 181.9,465.0" fill="none" stroke="#24301f" stroke-width="1.6" opacity="0.55"/><polygon points="259.8,480.0 259.8,510.0 233.8,525.0 207.8,510.0 207.8,480.0 233.8,465.0" fill="none" stroke="#24301f" stroke-width="1.6" opacity="0.55"/><polygon points="311.8,480.0 311.8,510.0 285.8,525.0 259.8,510.0 259.8,480.0 285.8,465.0" fill="none" stroke="#24301f" stroke-width="1.6" opacity="0.55"/><polygon points="363.7,480.0 363.7,510.0 337.7,525.0 311.8,510.0 311.8,480.0 337.7,465.0" fill="none" stroke="#24301f" stroke-width="1.6" opacity="0.55"/><polygon points="415.7,480.0 415.7,510.0 389.7,525.0 363.7,510.0 363.7,480.0 389.7,465.0" fill="none" stroke="#24301f" stroke-width="1.6" opacity="0.55"/><polygon points="26.0,525.0 26.0,555.0 0.0,570.0 -26.0,555.0 -26.0,525.0 -0.0,510.0" fill="none" stroke="#24301f" stroke-width="1.6" opacity="0.55"/><polygon points="77.9,525.0 77.9,555.0 52.0,570.0 26.0,555.0 26.0,525.0 52.0,510.0" fill="none" stroke="#24301f" stroke-width="1.6" opacity="0.55"/><polygon points="129.9,525.0 129.9,555.0 103.9,570.0 77.9,555.0 77.9,525.0 103.9,510.0" fill="none" stroke="#24301f" stroke-width="1.6" opacity="0.55"/><polygon points="181.9,525.0 181.9,555.0 155.9,570.0 129.9,555.0 129.9,525.0 155.9,510.0" fill="none" stroke="#24301f" stroke-width="1.6" opacity="0.55"/><polygon points="233.8,525.0 233.8,555.0 207.8,570.0 181.9,555.0 181.9,525.0 207.8,510.0" fill="none" stroke="#24301f" stroke-width="1.6" opacity="0.55"/><polygon points="285.8,525.0 285.8,555.0 259.8,570.0 233.8,555.0 233.8,525.0 259.8,510.0" fill="none" stroke="#24301f" stroke-width="1.6" opacity="0.55"/><polygon points="337.7,525.0 337.7,555.0 311.8,570.0 285.8,555.0 285.8,525.0 311.8,510.0" fill="none" stroke="#24301f" stroke-width="1.6" opacity="0.55"/><polygon points="389.7,525.0 389.7,555.0 363.7,570.0 337.7,555.0 337.7,525.0 363.7,510.0" fill="none" stroke="#24301f" stroke-width="1.6" opacity="0.55"/><polygon points="441.7,525.0 441.7,555.0 415.7,570.0 389.7,555.0 389.7,525.0 415.7,510.0" fill="none" stroke="#24301f" stroke-width="1.6" opacity="0.55"/><polygon points="0.0,570.0 0.0,600.0 -26.0,615.0 -52.0,600.0 -52.0,570.0 -26.0,555.0" fill="none" stroke="#24301f" stroke-width="1.6" opacity="0.55"/><polygon points="52.0,570.0 52.0,600.0 26.0,615.0 -0.0,600.0 0.0,570.0 26.0,555.0" fill="none" stroke="#24301f" stroke-width="1.6" opacity="0.55"/><polygon points="103.9,570.0 103.9,600.0 77.9,615.0 52.0,600.0 52.0,570.0 77.9,555.0" fill="none" stroke="#24301f" stroke-width="1.6" opacity="0.55"/><polygon points="155.9,570.0 155.9,600.0 129.9,615.0 103.9,600.0 103.9,570.0 129.9,555.0" fill="none" stroke="#24301f" stroke-width="1.6" opacity="0.55"/><polygon points="207.8,570.0 207.8,600.0 181.9,615.0 155.9,600.0 155.9,570.0 181.9,555.0" fill="none" stroke="#24301f" stroke-width="1.6" opacity="0.55"/><polygon points="259.8,570.0 259.8,600.0 233.8,615.0 207.8,600.0 207.8,570.0 233.8,555.0" fill="none" stroke="#24301f" stroke-width="1.6" opacity="0.55"/><polygon points="311.8,570.0 311.8,600.0 285.8,615.0 259.8,600.0 259.8,570.0 285.8,555.0" fill="none" stroke="#24301f" stroke-width="1.6" opacity="0.55"/><polygon points="363.7,570.0 363.7,600.0 337.7,615.0 311.8,600.0 311.8,570.0 337.7,555.0" fill="none" stroke="#24301f" stroke-width="1.6" opacity="0.55"/><polygon points="415.7,570.0 415.7,600.0 389.7,615.0 363.7,600.0 363.7,570.0 389.7,555.0" fill="none" stroke="#24301f" stroke-width="1.6" opacity="0.55"/></svg>