<svg viewBox="0 0 400 556" xmlns="http://www.w3.org/2000/svg"><rect width="400" height="556" fill="#33422f"/><line x1="200.0" y1="511.52000000000004" x2="200.0" y2="44.480000000000004" stroke="#f8f4e8" stroke-width="3" opacity="0.85"/><line x1="200.0" y1="478.2" x2="129.4" y2="428.8" stroke="#f8f4e8" stroke-width="1.6" opacity="0.55"/><line x1="200.0" y1="478.2" x2="270.6" y2="428.8" stroke="#f8f4e8" stroke-width="1.6" opacity="0.55"/><line x1="200.0" y1="444.8" x2="132.6" y2="397.6" stroke="#f8f4e8" stroke-width="1.6" opacity="0.55"/><line x1="200.0" y1="444.8" x2="267.4" y2="397.6" stroke="#f8f4e8" stroke-width="1.6" opacity="0.55"/><line x1="200.0" y1="411.4" x2="135.8" y2="366.5" stroke="#f8f4e8" stroke-width="1.6" opacity="0.55"/><line x1="200.0" y1="411.4" x2="264.2" y2="366.5" stroke="#f8f4e8" stroke-width="1.6" opacity="0.55"/><line x1="200.0" y1="378.1" x2="138.9" y2="335.3" stroke="#f8f4e8" stroke-width="1.6" opacity="0.55"/><line x1="200.0" y1="378.1" x2="261.1" y2="335.3" stroke="#f8f4e8" stroke-width="1.6" opacity="0.55"/><line x1="200.0" y1="344.7" x2="142.1" y2="304.2" stroke="#f8f4e8" stroke-width="1.6" opacity="0.55"/><line x1="200.0" y1="344.7" x2="257.9" y2="304.2" stroke="#f8f4e8" stroke-width="1.6" opacity="0.55"/><line x1="200.0" y1="311.4" x2="145.2" y2="273.0" stroke="#f8f4e8" stroke-width="1.6" opacity="0.55"/><line x1="200.0" y1="311.4" x2="254.8" y2="273.0" stroke="#f8f4e8" stroke-width="1.6" opacity="0.55"/><line x1="200.0" y1="278.0" x2="148.4" y2="241.9" stroke="#f8f4e8" stroke-width="1.6" opacity="0.55"/><line x1="200.0" y1="278.0" x2="251.6" y2="241.9" stroke="#f8f4e8" stroke-width="1.6" opacity="0.55"/><line x1="200.0" y1="244.6" x2="151.6" y2="210.7" stroke="#f8f4e8" stroke-width="1.6" opacity="0.55"/><line x1="200.0" y1="244.6" x2="248.4" y2="210.7" stroke="#f8f4e8" stroke-width="1.6" opacity="0.55"/><line x1="200.0" y1="211.3" x2="154.7" y2="179.6" stroke="#f8f4e8" stroke-width="1.6" opacity="0.55"/><line x1="200.0" y1="211.3" x2="245.3" y2="179.6" stroke="#f8f4e8" stroke-width="1.6" opacity="0.55"/><line x1="200.0" y1="177.9" x2="157.9" y2="148.4" stroke="#f8f4e8" stroke-width="1.6" opacity="0.55"/><line x1="200.0" y1="177.9" x2="242.1" y2="148.4" stroke="#f8f4e8" stroke-width="1.6" opacity="0.55"/><line x1="200.0" y1="144.6" x2="161.0" y2="117.3" stroke="#f8f4e8" stroke-width="1.6" opacity="0.55"/><line x1="200.0" y1="144.6" x2="239.0" y2="117.3" stroke="#f8f4e8" stroke-width="1.6" opacity="0.55"/><line x1="200.0" y1="111.2" x2="164.2" y2="86.1" stroke="#f8f4e8" stroke-width="1.6" opacity="0.55"/><line x1="200.0" y1="111.2" x2="235.8" y2="86.1" stroke="#f8f4e8" stroke-width="1.6" opacity="0.55"/><line x1="200.0" y1="77.8" x2="167.4" y2="55.0" stroke="#f8f4e8" stroke-width="1.6" opacity="0.55"/><line x1="200.0" y1="77.8" x2="232.6" y2="55.0" stroke="#f8f4e8" stroke-width="1.6" opacity="0.55"/></svg>