<svg viewBox="0 0 400 556" xmlns="http://www.w3.org/2000/svg"><rect width="400" height="556" fill="#24301f"/><polyline points="204.0,278.0 204.0,278.6 204.0,279.2 203.8,279.9 203.6,280.5 203.3,281.0 202.8,281.6 202.3,282.0 201.7,282.4 201.1,282.7 200.3,282.9 199.6,283.0 198.8,283.0 198.1,282.9 197.3,282.6 196.6,282.3 195.9,281.8 195.3,281.2 194.7,280.5 194.3,279.7 194.0,278.9 193.8,277.9 193.7,277.0 193.8,276.0 194.1,275.1 194.5,274.1 195.0,273.3 195.7,272.4 196.5,271.7 197.4,271.1 198.4,270.7 199.5,270.3 200.7,270.2 201.9,270.2 203.1,270.4 204.3,270.8 205.4,271.4 206.5,272.2 207.4,273.1 208.2,274.2 208.9,275.4 209.4,276.7 209.7,278.2 209.7,279.6 209.6,281.1 209.2,282.6 208.6,284.1 207.7,285.4 206.7,286.7 205.4,287.8 204.0,288.7 202.4,289.4 200.6,289.9 198.8,290.1 197.0,290.1 195.1,289.7 193.3,289.1 191.5,288.2 189.9,287.0 188.4,285.5 187.2,283.8 186.1,281.9 185.4,279.8 185.0,277.6 184.9,275.3 185.2,273.0 185.8,270.7 186.8,268.4 188.1,266.3 189.8,264.4 191.7,262.7 194.0,261.3 196.5,260.2 199.2,259.5 202.0,259.2 204.9,259.3 207.8,259.9 210.6,260.9 213.3,262.3 215.9,264.2 218.1,266.5 220.0,269.1 221.6,272.1 222.7,275.3 223.3,278.8 223.4,282.4 223.0,286.0 222.0,289.6 220.5,293.0 218.4,296.3 215.8,299.3 212.7,301.9 209.1,304.1 205.2,305.7" fill="none" stroke="#a8712e" stroke-width="3" opacity="0.85"/></svg>